<svg width="334" height="125" viewBox="0 0 334 125" fill="none" xmlns="http://www.w3.org/2000/svg">
<path d="M72 62.5C72 75.7548 61.2548 86.5 48 86.5C34.7452 86.5 24 75.7548 24 62.5C24 49.2452 34.7452 38.5 48 38.5C61.2548 38.5 72 49.2452 72 62.5Z" fill="#F3EDC8"/>
<path d="M67.2 62.5C67.2 73.1039 58.6039 81.7 48 81.7C37.3961 81.7 28.8 73.1039 28.8 62.5C28.8 51.8961 37.3961 43.3 48 43.3C58.6039 43.3 67.2 51.8961 67.2 62.5Z" fill="#EAD196"/>
<path d="M47.5206 70.5237C45.7593 70.5237 44.1209 70.1141 42.6054 69.2949C41.0899 68.4552 39.6256 67.3083 38.2124 65.8542C38.1715 65.8133 38.1203 65.7928 38.0588 65.7928C37.8745 65.7928 37.6697 65.9054 37.4444 66.1307L37.0451 65.7006L41.3152 61.6763L41.7145 62.1064C41.5916 62.2088 41.479 62.3522 41.3766 62.5365C41.2742 62.7208 41.2537 62.8539 41.3152 62.9358C43.2198 65.3525 45.2985 66.5608 47.5513 66.5608C48.3296 66.5608 49.0259 66.4072 49.6403 66.1C50.2752 65.7928 50.7667 65.4037 51.1148 64.9326C51.463 64.4411 51.6371 63.9394 51.6371 63.4274C51.6371 62.219 50.5824 61.2258 48.4729 60.4475L44.6944 59.0344C43.1788 58.4814 41.991 57.7237 41.1308 56.7611C40.2912 55.7986 39.8713 54.6414 39.8713 53.2898C39.8713 51.9586 40.1785 50.8014 40.7929 49.8184C41.4278 48.8149 42.3187 48.0469 43.4656 47.5144C44.6124 46.9819 45.9436 46.7157 47.4592 46.7157C48.8928 46.7157 50.0908 46.941 51.0534 47.3915C52.0364 47.8216 53.0809 48.4872 54.1868 49.3883C54.2073 49.4088 54.2483 49.419 54.3097 49.419C54.4121 49.419 54.5248 49.3883 54.6476 49.3269C54.791 49.245 54.9036 49.163 54.9856 49.0811L55.3849 49.4805L51.5756 53.2283L51.1763 52.7982C51.2787 52.6958 51.3504 52.5832 51.3913 52.4603C51.4528 52.317 51.4425 52.2146 51.3606 52.1531C50.0294 51.0882 48.7084 50.5557 47.3977 50.5557C46.3532 50.5557 45.5238 50.8014 44.9094 51.293C44.295 51.764 43.9878 52.3682 43.9878 53.1054C43.9878 53.7608 44.1516 54.2626 44.4793 54.6107C44.8275 54.9589 45.3497 55.2558 46.046 55.5016L49.7632 56.8533C51.0534 57.3243 52.1286 57.8261 52.9888 58.3586C53.8489 58.8706 54.535 59.5566 55.047 60.4168C55.559 61.2565 55.815 62.3112 55.815 63.581C55.815 64.8098 55.4873 65.9566 54.832 67.0216C54.1971 68.0661 53.2448 68.916 51.975 69.5714C50.7257 70.2062 49.2409 70.5237 47.5206 70.5237Z" fill="#7D0A0A"/>
<path d="M60.1603 71.307V76.3451H59.5766C59.5766 76.2222 59.5459 76.0789 59.4845 75.915C59.423 75.7717 59.3411 75.7 59.2387 75.7H44.6467V75.1163C44.7901 75.1163 44.9334 75.0856 45.0768 75.0242C45.2406 74.9627 45.3226 74.8808 45.3226 74.7784V53.5816C45.3226 53.4792 45.2406 53.3973 45.0768 53.3358C44.913 53.2744 44.7594 53.2437 44.616 53.2437V52.66H50.1456V53.2437C50.0022 53.2437 49.8486 53.2744 49.6848 53.3358C49.521 53.3973 49.439 53.4792 49.439 53.5816V71.9522H59.2387C59.3411 71.9522 59.423 71.8805 59.4845 71.7371C59.5459 71.5733 59.5766 71.4299 59.5766 71.307H60.1603Z" fill="#7D0A0A"/>
<path d="M96.6772 53.36C96.6772 53.92 96.9572 54.36 97.5172 54.68C98.1039 55 99.0105 55.3467 100.237 55.72C101.704 56.2 102.904 56.6667 103.837 57.12C104.797 57.5733 105.624 58.28 106.317 59.24C107.037 60.2 107.397 61.4533 107.397 63C107.397 67.96 104.171 70.44 97.7172 70.44C96.6505 70.44 95.3439 70.3467 93.7972 70.16C92.2772 69.9733 90.8905 69.7333 89.6372 69.44C89.6905 68.88 89.7972 68.0667 89.9572 67C90.1439 65.9067 90.3172 65.0933 90.4772 64.56C91.4105 64.6933 92.8105 64.8533 94.6772 65.04C96.5705 65.2267 97.9972 65.32 98.9572 65.32C99.5172 65.32 99.8505 65.28 99.9572 65.2C100.117 65.0933 100.237 64.92 100.317 64.68C100.424 64.4133 100.477 64.1867 100.477 64C100.477 63.4667 100.224 63.0667 99.7172 62.8C99.2105 62.5067 98.3439 62.16 97.1172 61.76C95.6505 61.3067 94.4372 60.84 93.4772 60.36C92.5172 59.88 91.6772 59.1333 90.9572 58.12C90.2372 57.1067 89.8772 55.7733 89.8772 54.12C89.8772 52.9467 90.1439 51.8 90.6772 50.68C91.2105 49.5333 91.7572 48.76 92.3172 48.36C92.7439 48.0667 93.6239 47.7867 94.9572 47.52C96.2905 47.2533 97.5439 47.12 98.7172 47.12C101.704 47.12 104.144 47.4 106.037 47.96C106.011 48.4933 105.917 49.2267 105.757 50.16C105.624 51.0933 105.477 51.9467 105.317 52.72L104.397 52.68C100.931 52.44 98.7172 52.32 97.7572 52.32C97.3572 52.32 97.1305 52.3333 97.0772 52.36C96.9705 52.4133 96.8772 52.5333 96.7972 52.72C96.7172 52.9067 96.6772 53.12 96.6772 53.36ZM128.143 52.76C128.383 53.0533 128.556 53.7867 128.663 54.96C128.796 56.1333 128.863 57.92 128.863 60.32V70H122.023V60.4C122.023 60.2933 122.023 59.7733 122.023 58.84C122.023 57.88 121.956 57.2933 121.823 57.08C121.743 56.9733 121.543 56.8933 121.223 56.84C120.93 56.7867 120.583 56.76 120.183 56.76L119.503 56.8C118.756 56.8267 117.983 57 117.183 57.32V70H110.343V46L117.183 45.72V50.4C117.183 52.32 117.116 53.6 116.983 54.24L117.023 54.28C118.836 52.2267 121.01 51.2 123.543 51.2C124.503 51.2 125.396 51.3333 126.223 51.6C127.076 51.8667 127.716 52.2533 128.143 52.76ZM150.423 51.6V70H144.863L144.103 66.92C142.183 69.24 139.889 70.4 137.223 70.4C136.263 70.4 135.356 70.2667 134.503 70C133.676 69.7333 133.049 69.3467 132.623 68.84C132.383 68.5467 132.196 67.8133 132.063 66.64C131.956 65.4667 131.903 63.68 131.903 61.28V51.6H138.743V61.2C138.743 61.7333 138.756 62.36 138.783 63.08C138.809 63.8 138.889 64.2533 139.023 64.44C139.209 64.7067 139.743 64.84 140.623 64.84L141.263 64.8C142.009 64.7733 142.783 64.6 143.583 64.28V51.6H150.423ZM171.503 52.76C171.743 53.0533 171.916 53.7867 172.023 54.96C172.156 56.1333 172.223 57.92 172.223 60.32V70H165.383V60.4V58.76C165.383 57.9067 165.316 57.3733 165.183 57.16C164.969 56.8933 164.476 56.76 163.703 56.76C163.329 56.76 163.049 56.7733 162.863 56.8C162.116 56.8267 161.343 57 160.543 57.32V70H153.703V51.6H159.263L160.023 54.68C161.943 52.36 164.236 51.2 166.903 51.2C167.863 51.2 168.756 51.3333 169.583 51.6C170.436 51.8667 171.076 52.2533 171.503 52.76ZM175.662 47.2H182.862V64.72H192.182V70H175.662V47.2ZM212.806 51.6V70H207.246L206.486 66.92C204.566 69.24 202.272 70.4 199.606 70.4C198.646 70.4 197.739 70.2667 196.886 70C196.059 69.7333 195.432 69.3467 195.006 68.84C194.766 68.5467 194.579 67.8133 194.446 66.64C194.339 65.4667 194.286 63.68 194.286 61.28V51.6H201.126V61.2C201.126 61.7333 201.139 62.36 201.166 63.08C201.192 63.8 201.272 64.2533 201.406 64.44C201.592 64.7067 202.126 64.84 203.006 64.84L203.646 64.8C204.392 64.7733 205.166 64.6 205.966 64.28V51.6H212.806ZM235.645 70H228.205L224.405 62.52C224.032 61.7467 223.539 61.2533 222.925 61.04V70H216.085V46L222.925 45.72V59.36C223.565 59.0933 224.112 58.5467 224.565 57.72L227.965 51.6L235.445 51.56L231.565 57.8C230.952 58.7867 230.285 59.5733 229.565 60.16C230.179 60.8267 230.872 61.84 231.645 63.2L235.645 70ZM240.821 70.32C239.728 70.32 238.821 69.96 238.101 69.24C237.408 68.52 237.061 67.5467 237.061 66.32C237.061 65.2533 237.421 64.36 238.141 63.64C238.888 62.8933 239.821 62.52 240.941 62.52C242.008 62.52 242.901 62.8933 243.621 63.64C244.341 64.36 244.701 65.2533 244.701 66.32C244.701 67.5467 244.341 68.52 243.621 69.24C242.928 69.96 241.994 70.32 240.821 70.32ZM263.44 69.44C261.28 70.16 258.867 70.52 256.2 70.52C253.214 70.52 250.974 69.7733 249.48 68.28C248.014 66.76 247.28 64.4 247.28 61.2C247.28 59.6267 247.494 58.08 247.92 56.56C248.347 55.0133 248.8 53.9733 249.28 53.44C249.84 52.8267 250.934 52.3067 252.56 51.88C254.214 51.4533 255.92 51.24 257.68 51.24C259.52 51.24 261.374 51.4 263.24 51.72C263.187 52.3867 263.094 53.1733 262.96 54.08C262.854 54.96 262.734 55.7467 262.6 56.44C260.947 56.3333 259.387 56.28 257.92 56.28C256.48 56.28 255.56 56.36 255.16 56.52C254.947 56.6 254.747 57.1467 254.56 58.16C254.4 59.1733 254.32 60.12 254.32 61C254.32 62.1733 254.48 63.08 254.8 63.72C255.147 64.3333 255.68 64.76 256.4 65C257.12 65.24 258.094 65.36 259.32 65.36C259.854 65.36 261.027 65.3067 262.84 65.2L263.44 69.44ZM274.614 70.52C271.414 70.52 269.014 69.7733 267.414 68.28C265.84 66.76 265.054 64.3733 265.054 61.12C265.054 59.3333 265.214 57.7733 265.534 56.44C265.88 55.08 266.294 54.1333 266.774 53.6C267.387 52.9067 268.507 52.3333 270.134 51.88C271.787 51.4267 273.334 51.2 274.774 51.2C278.214 51.2 280.667 51.9333 282.134 53.4C283.6 54.8667 284.334 57.2133 284.334 60.44C284.334 63.9067 283.547 66.4533 281.974 68.08C280.4 69.7067 277.947 70.52 274.614 70.52ZM274.734 65.84C275.774 65.84 276.454 65.48 276.774 64.76C277.094 64.0133 277.254 62.7067 277.254 60.84C277.254 59.5333 277.187 58.5333 277.054 57.84C276.92 57.12 276.667 56.6 276.294 56.28C275.947 55.9333 275.4 55.76 274.654 55.76C273.587 55.76 272.974 55.8533 272.814 56.04C272.6 56.2267 272.427 56.8133 272.294 57.8C272.16 58.7867 272.094 59.8133 272.094 60.88C272.094 62.6933 272.267 63.9733 272.614 64.72C272.987 65.4667 273.694 65.84 274.734 65.84ZM315.705 52.88C316.131 53.52 316.345 56 316.345 60.32V70H309.505V61V58.84C309.505 57.8533 309.411 57.2667 309.225 57.08C309.011 56.8667 308.558 56.76 307.865 56.76L307.385 56.8C306.558 56.8533 305.771 57.04 305.025 57.36C305.051 57.92 305.065 58.9067 305.065 60.32V70H298.225V61V58.6C298.225 57.7733 298.131 57.2667 297.945 57.08C297.731 56.8667 297.278 56.76 296.585 56.76L296.105 56.8C295.358 56.8267 294.585 57 293.785 57.32V70H286.945V51.6H292.505L293.225 54.6C294.105 53.4267 295.118 52.5733 296.265 52.04C297.411 51.48 298.571 51.2 299.745 51.2C300.731 51.2 301.665 51.3467 302.545 51.64C303.451 51.9333 304.078 52.3467 304.425 52.88C304.585 53.12 304.718 53.56 304.825 54.2C305.678 53.16 306.651 52.4 307.745 51.92C308.838 51.44 309.931 51.2 311.025 51.2C312.011 51.2 312.945 51.3467 313.825 51.64C314.731 51.9333 315.358 52.3467 315.705 52.88Z" fill="#EAD196"/>
</svg>
