<svg width="288" height="125" viewBox="0 0 288 125" fill="none" xmlns="http://www.w3.org/2000/svg">
<path d="M72 62.5C72 75.7548 61.2548 86.5 48 86.5C34.7452 86.5 24 75.7548 24 62.5C24 49.2452 34.7452 38.5 48 38.5C61.2548 38.5 72 49.2452 72 62.5Z" fill="#F3EDC8"/>
<path d="M67.2 62.5C67.2 73.1039 58.6039 81.7 48 81.7C37.3961 81.7 28.8 73.1039 28.8 62.5C28.8 51.8961 37.3961 43.3 48 43.3C58.6039 43.3 67.2 51.8961 67.2 62.5Z" fill="#EAD196"/>
<path d="M47.5206 70.5237C45.7593 70.5237 44.1209 70.1141 42.6054 69.2949C41.0899 68.4552 39.6256 67.3083 38.2124 65.8542C38.1715 65.8133 38.1203 65.7928 38.0588 65.7928C37.8745 65.7928 37.6697 65.9054 37.4444 66.1307L37.0451 65.7006L41.3152 61.6763L41.7145 62.1064C41.5916 62.2088 41.479 62.3522 41.3766 62.5365C41.2742 62.7208 41.2537 62.8539 41.3152 62.9358C43.2198 65.3525 45.2985 66.5608 47.5513 66.5608C48.3296 66.5608 49.0259 66.4072 49.6403 66.1C50.2752 65.7928 50.7667 65.4037 51.1148 64.9326C51.463 64.4411 51.6371 63.9394 51.6371 63.4274C51.6371 62.219 50.5824 61.2258 48.4729 60.4475L44.6944 59.0344C43.1788 58.4814 41.991 57.7237 41.1308 56.7611C40.2912 55.7986 39.8713 54.6414 39.8713 53.2898C39.8713 51.9586 40.1785 50.8014 40.7929 49.8184C41.4278 48.8149 42.3187 48.0469 43.4656 47.5144C44.6124 46.9819 45.9436 46.7157 47.4592 46.7157C48.8928 46.7157 50.0908 46.941 51.0534 47.3915C52.0364 47.8216 53.0809 48.4872 54.1868 49.3883C54.2073 49.4088 54.2483 49.419 54.3097 49.419C54.4121 49.419 54.5248 49.3883 54.6476 49.3269C54.791 49.245 54.9036 49.163 54.9856 49.0811L55.3849 49.4805L51.5756 53.2283L51.1763 52.7982C51.2787 52.6958 51.3504 52.5832 51.3913 52.4603C51.4528 52.317 51.4425 52.2146 51.3606 52.1531C50.0294 51.0882 48.7084 50.5557 47.3977 50.5557C46.3532 50.5557 45.5238 50.8014 44.9094 51.293C44.295 51.764 43.9878 52.3682 43.9878 53.1054C43.9878 53.7608 44.1516 54.2626 44.4793 54.6107C44.8275 54.9589 45.3497 55.2558 46.046 55.5016L49.7632 56.8533C51.0534 57.3243 52.1286 57.8261 52.9888 58.3586C53.8489 58.8706 54.535 59.5566 55.047 60.4168C55.559 61.2565 55.815 62.3112 55.815 63.581C55.815 64.8098 55.4873 65.9566 54.832 67.0216C54.1971 68.0661 53.2448 68.916 51.975 69.5714C50.7257 70.2062 49.2409 70.5237 47.5206 70.5237Z" fill="#7D0A0A"/>
<path d="M60.1603 71.307V76.3451H59.5766C59.5766 76.2222 59.5459 76.0789 59.4845 75.915C59.423 75.7717 59.3411 75.7 59.2387 75.7H44.6467V75.1163C44.7901 75.1163 44.9334 75.0856 45.0768 75.0242C45.2406 74.9627 45.3226 74.8808 45.3226 74.7784V53.5816C45.3226 53.4792 45.2406 53.3973 45.0768 53.3358C44.913 53.2744 44.7594 53.2437 44.616 53.2437V52.66H50.1456V53.2437C50.0022 53.2437 49.8486 53.2744 49.6848 53.3358C49.521 53.3973 49.439 53.4792 49.439 53.5816V71.9522H59.2387C59.3411 71.9522 59.423 71.8805 59.4845 71.7371C59.5459 71.5733 59.5766 71.4299 59.5766 71.307H60.1603Z" fill="#7D0A0A"/>
<path d="M94.9418 55.188C94.9418 55.636 95.1658 55.988 95.6138 56.244C96.0831 56.5 96.8084 56.7773 97.7898 57.076C98.9631 57.46 99.9231 57.8333 100.67 58.196C101.438 58.5587 102.099 59.124 102.654 59.892C103.23 60.66 103.518 61.6627 103.518 62.9C103.518 66.868 100.936 68.852 95.7738 68.852C94.9204 68.852 93.8751 68.7773 92.6378 68.628C91.4218 68.4787 90.3124 68.2867 89.3098 68.052C89.3524 67.604 89.4378 66.9533 89.5658 66.1C89.7151 65.2253 89.8538 64.5747 89.9818 64.148C90.7284 64.2547 91.8484 64.3827 93.3418 64.532C94.8564 64.6813 95.9978 64.756 96.7658 64.756C97.2138 64.756 97.4804 64.724 97.5658 64.66C97.6938 64.5747 97.7898 64.436 97.8538 64.244C97.9391 64.0307 97.9818 63.8493 97.9818 63.7C97.9818 63.2733 97.7791 62.9533 97.3738 62.74C96.9684 62.5053 96.2751 62.228 95.2938 61.908C94.1204 61.5453 93.1498 61.172 92.3818 60.788C91.6138 60.404 90.9418 59.8067 90.3658 58.996C89.7898 58.1853 89.5018 57.1187 89.5018 55.796C89.5018 54.8573 89.7151 53.94 90.1418 53.044C90.5684 52.1267 91.0058 51.508 91.4538 51.188C91.7951 50.9533 92.4991 50.7293 93.5658 50.516C94.6324 50.3027 95.6351 50.196 96.5738 50.196C98.9631 50.196 100.915 50.42 102.43 50.868C102.408 51.2947 102.334 51.8813 102.206 52.628C102.099 53.3747 101.982 54.0573 101.854 54.676L101.118 54.644C98.3444 54.452 96.5738 54.356 95.8058 54.356C95.4858 54.356 95.3044 54.3667 95.2618 54.388C95.1764 54.4307 95.1018 54.5267 95.0378 54.676C94.9738 54.8253 94.9418 54.996 94.9418 55.188ZM120.115 54.708C120.307 54.9427 120.445 55.5293 120.531 56.468C120.637 57.4067 120.691 58.836 120.691 60.756V68.5H115.219V60.82C115.219 60.7347 115.219 60.3187 115.219 59.572C115.219 58.804 115.165 58.3347 115.059 58.164C114.995 58.0787 114.835 58.0147 114.579 57.972C114.344 57.9293 114.067 57.908 113.747 57.908L113.203 57.94C112.605 57.9613 111.987 58.1 111.347 58.356V68.5H105.875V49.3L111.347 49.076V52.82C111.347 54.356 111.293 55.38 111.187 55.892L111.219 55.924C112.669 54.2813 114.408 53.46 116.435 53.46C117.203 53.46 117.917 53.5667 118.579 53.78C119.261 53.9933 119.773 54.3027 120.115 54.708ZM137.938 53.78V68.5H133.49L132.882 66.036C131.346 67.892 129.512 68.82 127.378 68.82C126.61 68.82 125.885 68.7133 125.202 68.5C124.541 68.2867 124.04 67.9773 123.698 67.572C123.506 67.3373 123.357 66.7507 123.25 65.812C123.165 64.8733 123.122 63.444 123.122 61.524V53.78H128.594V61.46C128.594 61.8867 128.605 62.388 128.626 62.964C128.648 63.54 128.712 63.9027 128.818 64.052C128.968 64.2653 129.394 64.372 130.098 64.372L130.61 64.34C131.208 64.3187 131.826 64.18 132.466 63.924V53.78H137.938ZM154.802 54.708C154.994 54.9427 155.133 55.5293 155.218 56.468C155.325 57.4067 155.378 58.836 155.378 60.756V68.5H149.906V60.82V59.508C149.906 58.8253 149.853 58.3987 149.746 58.228C149.575 58.0147 149.181 57.908 148.562 57.908C148.263 57.908 148.039 57.9187 147.89 57.94C147.293 57.9613 146.674 58.1 146.034 58.356V68.5H140.562V53.78H145.01L145.618 56.244C147.154 54.388 148.989 53.46 151.122 53.46C151.89 53.46 152.605 53.5667 153.266 53.78C153.949 53.9933 154.461 54.3027 154.802 54.708ZM158.13 50.26H163.89V64.276H171.346V68.5H158.13V50.26ZM187.845 53.78V68.5H183.397L182.789 66.036C181.253 67.892 179.418 68.82 177.285 68.82C176.517 68.82 175.791 68.7133 175.109 68.5C174.447 68.2867 173.946 67.9773 173.605 67.572C173.413 67.3373 173.263 66.7507 173.157 65.812C173.071 64.8733 173.029 63.444 173.029 61.524V53.78H178.501V61.46C178.501 61.8867 178.511 62.388 178.533 62.964C178.554 63.54 178.618 63.9027 178.725 64.052C178.874 64.2653 179.301 64.372 180.005 64.372L180.517 64.34C181.114 64.3187 181.733 64.18 182.373 63.924V53.78H187.845ZM206.116 68.5H200.164L197.124 62.516C196.826 61.8973 196.431 61.5027 195.94 61.332V68.5H190.468V49.3L195.94 49.076V59.988C196.452 59.7747 196.89 59.3373 197.252 58.676L199.972 53.78L205.956 53.748L202.852 58.74C202.362 59.5293 201.828 60.1587 201.252 60.628C201.743 61.1613 202.298 61.972 202.916 63.06L206.116 68.5ZM210.257 68.756C209.382 68.756 208.657 68.468 208.081 67.892C207.526 67.316 207.249 66.5373 207.249 65.556C207.249 64.7027 207.537 63.988 208.113 63.412C208.71 62.8147 209.457 62.516 210.353 62.516C211.206 62.516 211.921 62.8147 212.497 63.412C213.073 63.988 213.361 64.7027 213.361 65.556C213.361 66.5373 213.073 67.316 212.497 67.892C211.942 68.468 211.195 68.756 210.257 68.756ZM228.352 68.052C226.624 68.628 224.694 68.916 222.56 68.916C220.171 68.916 218.379 68.3187 217.184 67.124C216.011 65.908 215.424 64.02 215.424 61.46C215.424 60.2013 215.595 58.964 215.936 57.748C216.278 56.5107 216.64 55.6787 217.024 55.252C217.472 54.7613 218.347 54.3453 219.648 54.004C220.971 53.6627 222.336 53.492 223.744 53.492C225.216 53.492 226.699 53.62 228.192 53.876C228.15 54.4093 228.075 55.0387 227.968 55.764C227.883 56.468 227.787 57.0973 227.68 57.652C226.358 57.5667 225.11 57.524 223.936 57.524C222.784 57.524 222.048 57.588 221.728 57.716C221.558 57.78 221.398 58.2173 221.248 59.028C221.12 59.8387 221.056 60.596 221.056 61.3C221.056 62.2387 221.184 62.964 221.44 63.476C221.718 63.9667 222.144 64.308 222.72 64.5C223.296 64.692 224.075 64.788 225.056 64.788C225.483 64.788 226.422 64.7453 227.872 64.66L228.352 68.052ZM237.291 68.916C234.731 68.916 232.811 68.3187 231.531 67.124C230.272 65.908 229.643 63.9987 229.643 61.396C229.643 59.9667 229.771 58.7187 230.027 57.652C230.304 56.564 230.635 55.8067 231.019 55.38C231.51 54.8253 232.406 54.3667 233.707 54.004C235.03 53.6413 236.267 53.46 237.419 53.46C240.171 53.46 242.134 54.0467 243.307 55.22C244.48 56.3933 245.067 58.2707 245.067 60.852C245.067 63.6253 244.438 65.6627 243.179 66.964C241.92 68.2653 239.958 68.916 237.291 68.916ZM237.387 65.172C238.219 65.172 238.763 64.884 239.019 64.308C239.275 63.7107 239.403 62.6653 239.403 61.172C239.403 60.1267 239.35 59.3267 239.243 58.772C239.136 58.196 238.934 57.78 238.635 57.524C238.358 57.2467 237.92 57.108 237.323 57.108C236.47 57.108 235.979 57.1827 235.851 57.332C235.68 57.4813 235.542 57.9507 235.435 58.74C235.328 59.5293 235.275 60.3507 235.275 61.204C235.275 62.6547 235.414 63.6787 235.691 64.276C235.99 64.8733 236.555 65.172 237.387 65.172ZM270.164 54.804C270.505 55.316 270.676 57.3 270.676 60.756V68.5H265.204V61.3V59.572C265.204 58.7827 265.129 58.3133 264.98 58.164C264.809 57.9933 264.446 57.908 263.892 57.908L263.508 57.94C262.846 57.9827 262.217 58.132 261.62 58.388C261.641 58.836 261.652 59.6253 261.652 60.756V68.5H256.18V61.3V59.38C256.18 58.7187 256.105 58.3133 255.956 58.164C255.785 57.9933 255.422 57.908 254.868 57.908L254.484 57.94C253.886 57.9613 253.268 58.1 252.628 58.356V68.5H247.156V53.78H251.604L252.18 56.18C252.884 55.2413 253.694 54.5587 254.612 54.132C255.529 53.684 256.457 53.46 257.396 53.46C258.185 53.46 258.932 53.5773 259.636 53.812C260.361 54.0467 260.862 54.3773 261.14 54.804C261.268 54.996 261.374 55.348 261.46 55.86C262.142 55.028 262.921 54.42 263.796 54.036C264.67 53.652 265.545 53.46 266.42 53.46C267.209 53.46 267.956 53.5773 268.66 53.812C269.385 54.0467 269.886 54.3773 270.164 54.804Z" fill="#EAD196"/>
</svg>
